<svg viewBox="0 0 671 200" xmlns="http://www.w3.org/2000/svg" fill-rule="evenodd" clip-rule="evenodd" stroke-linejoin="round" stroke-miterlimit="2"><path fill="none" d="M0 0h670.6v200H0z"/><path d="M205.7 4.5A15.2 15.2 0 00194.9 0H15.3A15.2 15.2 0 000 15.3v169.4A15.2 15.2 0 0015.3 200h179.6a15.2 15.2 0 0015.3-15.3V15.3c0-4.2-1.8-8-4.5-10.8" fill="#fff" fill-rule="nonzero"/><path d="M62.6 128.4H38.2a3.5 3.5 0 00-3.5 3.5v17.4c0 2 1.6 3.5 3.5 3.5h24.4v11.7H32.1c-5 0-9-4.1-9-9v-29.7c0-5 4-9 9-9h30.5v11.6zM71.4 96c0 5-4 9.1-9.1 9.1H23V93.4h33c2 0 3.5-1.6 3.5-3.6v-39c0-1.9-1.5-3.5-3.5-3.5H38.4c-2 0-3.5 1.6-3.5 3.5v17.8c0 2 1.5 3.5 3.5 3.5h14.2V84H32.2c-5 0-9.1-4-9.1-9.1V44.7c0-5 4-9.2 9.1-9.2h30c5.1 0 9.2 4.1 9.2 9.2V96zM187 164.4h-11.6v-36h-8.1c-2 0-3.5 1.5-3.5 3.5v32.5h-11.6v-36H144c-2 0-3.5 1.5-3.5 3.5v32.6H129v-38.7c0-5 4-9 9-9h49.2v47.6zM187.1 96c0 5-4.1 9.1-9.2 9.1h-39.2V93.4h33c2 0 3.6-1.6 3.6-3.6v-39c0-1.9-1.6-3.5-3.5-3.5H154c-2 0-3.5 1.6-3.5 3.5v17.8c0 2 1.6 3.5 3.5 3.5h14.2V84H148c-5.1 0-9.2-4-9.2-9.1V44.7c0-5 4.1-9.2 9.2-9.2h30c5 0 9.2 4.1 9.2 9.2V96zM117.4 50.8v17.8c0 2-1.5 3.5-3.4 3.5H96.2c-2 0-3.5-1.6-3.5-3.5V50.8c0-1.9 1.5-3.5 3.5-3.5H114c2 0 3.4 1.6 3.4 3.5zm2.7-15.3h-30c-5.1 0-9.2 4.1-9.2 9.2v30c0 5.1 4 9.2 9.1 9.2h30.1c5 0 9.2-4 9.2-9.1V44.7c0-5-4.1-9.2-9.2-9.2M108 131.9v17.4c0 2-1.6 3.5-3.5 3.5H87c-2 0-3.5-1.6-3.5-3.5V132c0-2 1.5-3.5 3.4-3.5h17.5c2 0 3.5 1.5 3.5 3.5zm2.6-15.1H80.9c-5 0-9 4-9 9v29.6c0 5 4 9 9 9h29.7c5 0 9-4 9-9v-29.6c0-5-4-9-9-9"/><g><path d="M289.4 129.7a38 38 0 01-11.5 1.7c-5 0-9.4-.8-13.3-2.3a28 28 0 01-16.7-16.3 34.6 34.6 0 01-2.3-12.8c0-4.7.8-9 2.2-12.8A27.8 27.8 0 01264 71a40.5 40.5 0 0125.6-.2 27.8 27.8 0 019.1 5.7l-2.3 3.8c-.4.5-.9.9-1.5 1-.5.2-1.2 0-2-.4l-2.3-1.4a21 21 0 00-7.7-3 29.8 29.8 0 00-15.5 1.1A20 20 0 00255.7 90a30 30 0 00-1.6 10c0 3.9.6 7.3 1.7 10.4a20.1 20.1 0 0012.1 12.6 27.3 27.3 0 0013.8 1.4 30.6 30.6 0 0010-3.4v-13.5h-9.5c-.5 0-1-.1-1.3-.5-.3-.3-.5-.7-.5-1.1v-4.7h18.9v23.5c-3.1 2.2-6.4 4-9.9 5M363.5 100c0-3.7-.5-7.1-1.5-10.1s-2.5-5.6-4.4-7.6a19 19 0 00-6.8-4.8 23.1 23.1 0 00-9-1.7 23 23 0 00-9 1.7 19.3 19.3 0 00-11.2 12.4c-1 3-1.6 6.4-1.6 10.1 0 3.8.6 7.2 1.6 10.1 1 3 2.5 5.6 4.4 7.6a19 19 0 006.8 4.8c2.7 1 5.7 1.6 9 1.6s6.3-.5 9-1.6 5-2.7 6.8-4.8c2-2 3.4-4.6 4.4-7.6 1-3 1.5-6.3 1.5-10m8.6 0c0 4.5-.8 8.7-2.2 12.6a27.5 27.5 0 01-15.7 16.4 32.3 32.3 0 01-12.4 2.2c-4.5 0-8.6-.7-12.3-2.3a27.6 27.6 0 01-15.7-16.3c-1.5-3.9-2.2-8-2.2-12.7 0-4.6.7-8.8 2.2-12.6A27.8 27.8 0 01329.5 71c3.7-1.6 7.8-2.4 12.3-2.4 4.5 0 8.6.8 12.3 2.3A27.7 27.7 0 01370 87.4c1.4 3.8 2.2 8 2.2 12.6M427.3 129.7a38 38 0 01-11.5 1.7c-5 0-9.4-.8-13.4-2.3a28 28 0 01-16.7-16.3 34.6 34.6 0 01-2.2-12.8c0-4.7.7-9 2.2-12.8A27.8 27.8 0 01401.9 71a40.5 40.5 0 0125.6-.2 27.8 27.8 0 019 5.7l-2.3 3.8c-.3.5-.8.9-1.4 1-.6.2-1.2 0-2-.4l-2.3-1.4a21 21 0 00-7.7-3 29.8 29.8 0 00-15.6 1.1A20 20 0 00393.6 90a30 30 0 00-1.6 10c0 3.9.5 7.3 1.6 10.4a20.1 20.1 0 0012.1 12.6 27.3 27.3 0 0013.9 1.4 30.6 30.6 0 0010-3.4v-13.5h-9.5c-.5 0-1-.1-1.3-.5-.3-.3-.5-.7-.5-1.1v-4.7h18.8v23.5c-3 2.2-6.3 4-9.8 5M451.6 126a5.4 5.4 0 013.2-5c.7-.3 1.4-.4 2.1-.4.7 0 1.4.1 2.1.4a5.5 5.5 0 012.9 2.9 5.3 5.3 0 01-1.2 5.9 5.2 5.2 0 01-3.8 1.5 5.4 5.4 0 01-3.8-1.5 5.3 5.3 0 01-1.5-3.8M519.4 118c.4 0 .8.2 1.2.6l3.3 3.5c-2.6 3-5.6 5.2-9.2 6.8-3.6 1.6-7.9 2.5-13 2.5-4.4 0-8.4-.8-12-2.3a26.3 26.3 0 01-9.2-6.5 29 29 0 01-5.9-9.9 37.1 37.1 0 01-2-12.7c0-4.6.7-8.8 2.1-12.7a27.5 27.5 0 0115.6-16.4c3.7-1.5 7.8-2.3 12.2-2.3a29.1 29.1 0 0120.4 7.8l-2.7 3.8c-.2.3-.4.6-.7.7a2 2 0 01-1 .3c-.6 0-1.2-.3-2-.8a28.5 28.5 0 00-7.4-3.7c-1.8-.6-4-.9-6.6-.9-3.2 0-6 .6-8.7 1.7a18.9 18.9 0 00-6.8 4.8 22 22 0 00-4.4 7.6c-1 3-1.6 6.4-1.6 10.1 0 3.8.6 7.3 1.7 10.3 1 3 2.6 5.5 4.4 7.6a19 19 0 006.8 4.7c2.6 1 5.3 1.6 8.3 1.6a34 34 0 005-.3 20.5 20.5 0 007.5-2.7l3.2-2.6c.5-.4 1-.6 1.5-.6M583.3 100c0-3.7-.5-7.1-1.5-10.1s-2.5-5.6-4.4-7.6a19 19 0 00-6.9-4.8 23.1 23.1 0 00-9-1.7 23 23 0 00-8.9 1.7 19.3 19.3 0 00-11.3 12.4c-1 3-1.5 6.4-1.5 10.1 0 3.8.5 7.2 1.5 10.1 1 3 2.5 5.6 4.4 7.6a19 19 0 006.9 4.8c2.7 1 5.7 1.6 9 1.6s6.3-.5 9-1.6c2.6-1.1 5-2.7 6.8-4.8 1.9-2 3.3-4.6 4.4-7.6 1-3 1.5-6.3 1.5-10m8.5 0c0 4.5-.7 8.7-2.2 12.6A27.5 27.5 0 01574 129a32.3 32.3 0 01-12.3 2.2c-4.6 0-8.7-.7-12.4-2.3a27.6 27.6 0 01-15.7-16.3c-1.4-3.9-2.2-8-2.2-12.7 0-4.6.8-8.8 2.2-12.6A27.8 27.8 0 01549.2 71c3.7-1.6 7.8-2.4 12.4-2.4 4.5 0 8.6.8 12.3 2.3a27.7 27.7 0 0115.7 16.5c1.5 3.8 2.2 8 2.2 12.6M638 110.7l.9 2.2a60 60 0 012-4.4l20.7-37.8c.4-.6.8-1 1.2-1.2l1.7-.2h6.1v61.4h-7.3V85.6a44.5 44.5 0 01.2-4l-21 38.3c-.7 1.3-1.7 2-3 2h-1.2c-1.3 0-2.3-.7-3-2l-21.5-38.5a47.5 47.5 0 01.3 4.2v45h-7.3V69.4h6.1l1.7.2c.4.2.8.6 1.2 1.2l21.2 37.8 1 2.2" fill="#fff" fill-rule="nonzero"/></g></svg>
