<svg width="190" height="56" viewBox="0 0 190 56" xmlns="http://www.w3.org/2000/svg"><path d="M54.5 27.6V27h7.8c-.7 4.3-4.1 21.3 1.1 21.3 6.1 0 9.3-21.3 9.3-21.3h6.6c-.4 3-3.3 22.2-1.2 22.2 1.3 0 2.8-1.8 4.4-4.3L84 27h8l-.3 5s3.2-6 10.9-6c3.1 0 5.8 1.6 6.5 5.3 1-1.5 4.3-5.3 10.4-5.3 3.7 0 6.7 2 6.7 7.3 0 2.4-1 7.2-1 7.2-.4 3.6-.5 5 .6 5 .6 0 2.3-1.9 4.3-4.2v-.7c-.4-19.4 7.5-39.7 7.5-39.7h6.7s-5.6 16.5-7.3 29.7c0 0 3-4.6 10.8-4.6 3.6 0 6.6 2.1 6.6 7.3 0 6-4 14-9.1 18.5-4.6 4-13 7.3-14.9-6.2-2.1 2.8-4 5.4-4.8 6.2-1.5 1.8-4 3.5-6.2 3.5-3.2 0-3-4-1.6-14.8l.1-.7c.5-4.8.3-8-1.5-8-2.3 0-6.6 2.7-7.5 8-.6 4.8-1.6 9.2-2.4 14.4H99c1.5-11.8 3.7-22.4.4-22.4-2.5 0-7.3 3.2-7.8 9.4l-1.1 13h-9l.2-1.6c-1.5 1.3-3.4 2.4-5.2 2.4-2 0-4-1.6-4.7-5.4-.5.6-1 1.2-1.7 1.7-2.2 2-5.5 3.7-8.6 3.6-3.7-.2-7-2.6-7.9-10.6a27.5 27.5 0 01-5.9 7.5c-5 4.4-16.4 8-16.8-11.2 0-3.6.2-7.2.6-10.6h-6.9c-2 13.4-6.3 24.2-6.3 24.2H10s12.3-43.7 4.3-43.7S3.8 22 3.8 22L0 21.1C.4 15.2 4.2 7.7 9.1 3.5c5.1-4.4 16.5-8 16.8 11.3 0 2.4 0 4.8-.2 7.2h7.1C35 10.3 38.6 1.3 38.6 1.3h8.3s-12.3 43.5-4.3 43.5c7.6 0 11-12.6 11.9-17.2zm116.6 25c-5.2 3.3-15.2 7-15.6-12.1C155.2 21 163.1.7 163.1.7h6.7s-12 47.5-4 47.6c.3 0 1.5-.5 3-1.3-.5-1.8-.7-4-.8-6.5-.1-8.5 4.4-14.7 12.1-14.7 3.7 0 6.7 2.2 6.7 7.4 0 .5 0 1-.2 1.5a32 32 0 01-9 12.8c.4.4 1.1.6 2 .6 3.8 0 6-1.3 7.5-2.9l2.1 1c-.8 1.7-2.1 3.5-4.3 5.5-3.5 3-10 5.7-13.8.9zm10.2-18.4c0-.8-.3-2.8-2.7-2.8-4 0-5.7 7.3-4.2 12.1 0 0 6.9-5.4 6.9-9.3zm-42.7 14c3.8 0 7-6.5 8.6-10 1.8-4.1 1-6.4-2.6-6.4-2.5 0-7.9 1.5-7.9 7.7 0 3.1.3 8.8 1.9 8.8z" fill-rule="nonzero" fill="#CB272C"/></svg>
