<?xml version="1.0" encoding="UTF-8" standalone="no"?>
<!DOCTYPE svg PUBLIC "-//W3C//DTD SVG 1.1//EN" "http://www.w3.org/Graphics/SVG/1.1/DTD/svg11.dtd">
<svg width="100%" height="100%" viewBox="0 0 671 200" version="1.1" xmlns="http://www.w3.org/2000/svg" xmlns:xlink="http://www.w3.org/1999/xlink" xml:space="preserve" xmlns:serif="http://www.serif.com/" style="fill-rule:evenodd;clip-rule:evenodd;stroke-linejoin:round;stroke-miterlimit:2;">
    <g id="Artboard1" transform="matrix(0.958127,0,0,1,2.72316e-14,1.42109e-14)">
        <rect x="0" y="0" width="699.938" height="200" style="fill:none;"/>
        <clipPath id="_clip1">
            <rect x="0" y="0" width="699.938" height="200"/>
        </clipPath>
        <g clip-path="url(#_clip1)">
            <g transform="matrix(1.64104,0,0,1.57233,261.951,-21.8774)">
                <path d="M-83.989,141.75L-64.389,141.75C-46.389,141.75 -31.789,127.15 -31.789,109.15L-31.789,47.15C-31.789,29.15 -46.389,14.55 -64.389,14.55L-84.089,14.55C-84.589,14.55 -84.889,14.95 -84.889,15.35L-84.889,140.85C-84.889,141.35 -84.489,141.75 -83.989,141.75ZM-59.789,71.65C-52.689,71.65 -46.889,77.45 -46.889,84.55C-46.889,91.65 -52.689,97.45 -59.789,97.45C-66.889,97.45 -72.689,91.65 -72.689,84.55C-72.589,77.45 -66.889,71.65 -59.789,71.65ZM-139.189,52.75C-139.189,59.35 -133.789,64.75 -127.189,64.75C-120.589,64.75 -115.189,59.35 -115.189,52.75C-115.189,46.15 -120.589,40.75 -127.189,40.75C-133.889,40.75 -139.189,46.05 -139.189,52.75ZM-98.589,14.55L-126.389,14.55C-144.389,14.55 -158.989,29.15 -158.989,47.15L-158.989,109.15C-158.989,127.15 -144.389,141.75 -126.389,141.75L-98.589,141.75C-98.089,141.75 -97.689,141.35 -97.689,140.85L-97.689,15.45C-97.689,14.95 -98.089,14.55 -98.589,14.55ZM-107.889,131.55L-126.389,131.55C-132.389,131.55 -137.989,129.25 -142.189,124.95C-146.389,120.75 -148.789,115.15 -148.789,109.15L-148.789,47.15C-148.789,41.15 -146.489,35.55 -142.189,31.35C-137.989,27.15 -132.389,24.75 -126.389,24.75L-107.889,24.75L-107.889,131.55Z" style="fill:rgb(230,0,18);fill-rule:nonzero;"/>
            </g>
            <g transform="matrix(2.26206,0,0,2.16734,144.763,-364.653)">
                <path d="M128.4,241.6L135.1,241.6L135.1,211.6L128.4,211.6L128.4,241.6ZM93.6,192.8L101.5,203.4L104.6,203.4L104.6,187.5L101.4,187.5L101.4,198L93.6,187.6L90.4,187.6L90.4,203.5L93.6,203.5L93.6,192.8ZM129.4,187.5L115.9,187.5L115.9,190.9L121,190.9L121,203.4L124.4,203.4L124.4,190.9L129.4,190.9L129.4,187.5ZM108.7,233.3L102.3,211.5L97,211.5L90.7,233.2L84.9,211.5L78.4,211.5L86.9,241.5L94.1,241.5L99.7,221.7L105.3,241.5L112.5,241.5L121,211.5L114.5,211.5L108.7,233.3ZM78.4,187.5L74.9,187.5L74.9,203.4L78.4,203.4L78.4,187.5ZM51.8,192.8L59.7,203.4L62.8,203.4L62.8,187.5L59.6,187.5L59.6,198L51.8,187.6L48.6,187.6L48.6,203.5L51.8,203.5L51.8,192.8ZM61.2,223.4L61,223.4C57.3,222.8 54.2,222.2 53.9,220.1C53.9,219.8 53.9,219.1 54.4,218.4C55.4,217.2 57.7,216.7 61.1,216.7C65,216.7 68.9,218.2 70.3,218.8L72.4,213.6C70.9,213 66.1,211.3 60.8,211.3C54.3,211.3 47.4,214.5 47.4,220.3C47.4,225 50.7,227.5 59.3,229C65.4,230 68.7,230.6 68.6,233.2C68.5,234.6 67.4,237 60.6,237C55.1,237 51.2,235 49.9,234.2L47.1,239.3C48.6,240.1 53.7,242.5 60.2,242.5C69.7,242.5 74.8,239.2 74.8,232.9C74.9,228.4 72.7,225.4 61.2,223.4ZM153.4,200.5L144.3,200.5L144.3,196.8L152.7,196.8L152.7,193.9L144.3,193.9L144.3,190.5L153.4,190.5L153.4,187.6L141,187.6L141,203.5L153.4,203.5L153.4,200.5ZM227.8,187C223.1,187 219.3,190.8 219.3,195.5C219.3,200.2 223.1,204 227.8,204C232.5,204 236.3,200.2 236.3,195.5C236.2,190.8 232.4,187 227.8,187ZM227.8,200.4C225.1,200.4 222.9,198.2 222.9,195.5C222.9,192.8 225.1,190.6 227.8,190.6C230.5,190.6 232.7,192.8 232.7,195.5C232.7,198.2 230.5,200.4 227.8,200.4ZM228.8,223.4L214.8,223.4L214.8,211.6L208.6,211.6L208.6,241.6L214.8,241.6L214.8,229.6L228.8,229.6L228.8,241.6L235,241.6L235,211.6L228.8,211.6L228.8,223.4ZM237.5,238.5L238.8,238.5L238.8,241.6L239.5,241.6L239.5,238.5L240.7,238.5L240.7,237.8L237.5,237.8L237.5,238.5ZM244.4,237.7L243.4,240.5L242.4,237.7L241.3,237.7L241.3,241.5L242,241.5L242,238.6L243,241.5L243.7,241.5L244.7,238.6L244.7,241.5L245.4,241.5L245.4,237.7L244.4,237.7ZM188.7,217.3C192.1,217.3 195.2,219.1 196.9,222L201.8,217.8C198.8,213.4 193.9,210.7 188.5,210.7C179.7,210.7 172.5,217.9 172.5,226.7C172.5,235.5 179.7,242.7 188.5,242.7C193.9,242.7 198.8,240.1 201.8,235.6L196.9,231.4C195.2,234.2 192.1,236.1 188.7,236.1C183.5,236.1 179.2,231.9 179.2,226.8C179.2,221.7 183.4,217.3 188.7,217.3ZM142.4,217.9L152,217.9L152,241.5L158.5,241.5L158.5,217.9L167.9,217.9L167.9,211.5L142.5,211.5L142.5,217.9L142.4,217.9ZM180.8,203.5L180.8,187.5L177.6,187.5L177.6,198L169.8,187.6L166.6,187.6L166.6,203.5L169.8,203.5L169.8,192.9L177.7,203.5L180.8,203.5ZM200.8,187.5L194.2,187.5L194.2,203.4L200.8,203.4C205.3,203.4 209,199.8 209,195.5C209,191.1 205.3,187.5 200.8,187.5ZM201,200.1L197.5,200.1L197.5,190.9L201,190.9C203.5,190.9 205.6,193 205.6,195.5C205.6,198 203.5,200.1 201,200.1Z" style="fill:rgb(230,0,18);fill-rule:nonzero;"/>
            </g>
        </g>
    </g>
</svg>
